<svg width="114" height="32" viewBox="0 0 114 32" fill="none" xmlns="http://www.w3.org/2000/svg">
<path d="M53.008 24.613C53.58 24.613 54.0897 24.5177 54.537 24.327C54.9917 24.1363 55.373 23.8687 55.681 23.524C55.9963 23.1793 56.2347 22.7613 56.396 22.27C56.5647 21.7787 56.649 21.2287 56.649 20.62V11.094H59.608V20.62C59.608 21.566 59.454 22.4423 59.146 23.249C58.8453 24.0483 58.409 24.7413 57.837 25.328C57.265 25.9073 56.572 26.362 55.758 26.692C54.944 27.0147 54.0273 27.176 53.008 27.176C51.9887 27.176 51.072 27.0147 50.258 26.692C49.444 26.362 48.751 25.9073 48.179 25.328C47.6143 24.7413 47.178 24.0483 46.87 23.249C46.5693 22.4423 46.419 21.566 46.419 20.62V11.094H49.378V20.609C49.378 21.2177 49.4587 21.7677 49.62 22.259C49.7887 22.7503 50.027 23.172 50.335 23.524C50.643 23.8687 51.0207 24.1363 51.468 24.327C51.9227 24.5177 52.436 24.613 53.008 24.613ZM66.4289 18.816L61.3579 11.094H64.3059C64.5112 11.094 64.6579 11.1233 64.7459 11.182C64.8412 11.2333 64.9255 11.3213 64.9989 11.446L68.6179 17.287C68.6545 17.1917 68.6949 17.1 68.7389 17.012C68.7829 16.9167 68.8342 16.8213 68.8929 16.726L72.2039 11.501C72.3652 11.2297 72.5742 11.094 72.8309 11.094H75.6689L70.5429 18.695L75.8119 27H72.8529C72.6549 27 72.4935 26.9487 72.3689 26.846C72.2515 26.7433 72.1525 26.626 72.0719 26.494L68.3869 20.4C68.3575 20.488 68.3245 20.5723 68.2879 20.653C68.2512 20.7263 68.2145 20.796 68.1779 20.862L64.6469 26.494C64.5662 26.6187 64.4672 26.736 64.3499 26.846C64.2325 26.9487 64.0859 27 63.9099 27H61.1379L66.4289 18.816ZM77.5435 27V11.094H83.0325C84.0738 11.094 84.9612 11.193 85.6945 11.391C86.4352 11.589 87.0402 11.8713 87.5095 12.238C87.9862 12.6047 88.3345 13.0483 88.5545 13.569C88.7745 14.0897 88.8845 14.6763 88.8845 15.329C88.8845 15.703 88.8295 16.0623 88.7195 16.407C88.6095 16.7443 88.4372 17.0633 88.2025 17.364C87.9752 17.6573 87.6818 17.925 87.3225 18.167C86.9705 18.409 86.5488 18.6143 86.0575 18.783C88.2428 19.2743 89.3355 20.455 89.3355 22.325C89.3355 22.9997 89.2072 23.623 88.9505 24.195C88.6938 24.767 88.3198 25.262 87.8285 25.68C87.3372 26.0907 86.7322 26.4133 86.0135 26.648C85.2948 26.8827 84.4735 27 83.5495 27H77.5435ZM80.5025 20.026V24.69H83.5055C84.0555 24.69 84.5138 24.624 84.8805 24.492C85.2545 24.36 85.5515 24.184 85.7715 23.964C85.9988 23.744 86.1602 23.4873 86.2555 23.194C86.3582 22.9007 86.4095 22.589 86.4095 22.259C86.4095 21.9143 86.3545 21.6063 86.2445 21.335C86.1345 21.0563 85.9622 20.8217 85.7275 20.631C85.4928 20.433 85.1922 20.2827 84.8255 20.18C84.4588 20.0773 84.0152 20.026 83.4945 20.026H80.5025ZM80.5025 17.98H82.8675C83.8722 17.98 84.6348 17.7967 85.1555 17.43C85.6762 17.0633 85.9365 16.4803 85.9365 15.681C85.9365 14.8523 85.7018 14.262 85.2325 13.91C84.7632 13.558 84.0298 13.382 83.0325 13.382H80.5025V17.98ZM96.3836 15.538C97.0949 15.538 97.7476 15.6517 98.3416 15.879C98.9429 16.1063 99.4599 16.44 99.8926 16.88C100.325 17.3127 100.663 17.848 100.905 18.486C101.147 19.1167 101.268 19.839 101.268 20.653C101.268 20.8583 101.257 21.0307 101.235 21.17C101.22 21.302 101.187 21.4083 101.136 21.489C101.092 21.5623 101.029 21.6173 100.949 21.654C100.868 21.6833 100.765 21.698 100.641 21.698H93.6666C93.7472 22.8567 94.0589 23.7073 94.6016 24.25C95.1442 24.7927 95.8629 25.064 96.7576 25.064C97.1976 25.064 97.5752 25.0127 97.8906 24.91C98.2132 24.8073 98.4919 24.6937 98.7266 24.569C98.9686 24.4443 99.1776 24.3307 99.3536 24.228C99.5369 24.1253 99.7129 24.074 99.8816 24.074C99.9916 24.074 100.087 24.096 100.168 24.14C100.248 24.184 100.318 24.2463 100.377 24.327L101.169 25.317C100.868 25.669 100.531 25.966 100.157 26.208C99.7826 26.4427 99.3902 26.6333 98.9796 26.78C98.5762 26.9193 98.1619 27.0183 97.7366 27.077C97.3186 27.1357 96.9116 27.165 96.5156 27.165C95.7309 27.165 95.0012 27.0367 94.3266 26.78C93.6519 26.516 93.0652 26.131 92.5666 25.625C92.0679 25.1117 91.6756 24.481 91.3896 23.733C91.1036 22.9777 90.9606 22.105 90.9606 21.115C90.9606 20.345 91.0852 19.6227 91.3346 18.948C91.5839 18.266 91.9396 17.6757 92.4016 17.177C92.8709 16.671 93.4392 16.2713 94.1066 15.978C94.7812 15.6847 95.5402 15.538 96.3836 15.538ZM96.4386 17.485C95.6466 17.485 95.0269 17.7087 94.5796 18.156C94.1322 18.6033 93.8462 19.2377 93.7216 20.059H98.8256C98.8256 19.707 98.7779 19.377 98.6826 19.069C98.5872 18.7537 98.4406 18.4787 98.2426 18.244C98.0446 18.0093 97.7952 17.826 97.4946 17.694C97.1939 17.5547 96.8419 17.485 96.4386 17.485ZM108.136 15.538C108.847 15.538 109.5 15.6517 110.094 15.879C110.695 16.1063 111.212 16.44 111.645 16.88C112.077 17.3127 112.415 17.848 112.657 18.486C112.899 19.1167 113.02 19.839 113.02 20.653C113.02 20.8583 113.009 21.0307 112.987 21.17C112.972 21.302 112.939 21.4083 112.888 21.489C112.844 21.5623 112.781 21.6173 112.701 21.654C112.62 21.6833 112.517 21.698 112.393 21.698H105.419C105.499 22.8567 105.811 23.7073 106.354 24.25C106.896 24.7927 107.615 25.064 108.51 25.064C108.95 25.064 109.327 25.0127 109.643 24.91C109.965 24.8073 110.244 24.6937 110.479 24.569C110.721 24.4443 110.93 24.3307 111.106 24.228C111.289 24.1253 111.465 24.074 111.634 24.074C111.744 24.074 111.839 24.096 111.92 24.14C112 24.184 112.07 24.2463 112.129 24.327L112.921 25.317C112.62 25.669 112.283 25.966 111.909 26.208C111.535 26.4427 111.142 26.6333 110.732 26.78C110.328 26.9193 109.914 27.0183 109.489 27.077C109.071 27.1357 108.664 27.165 108.268 27.165C107.483 27.165 106.753 27.0367 106.079 26.78C105.404 26.516 104.817 26.131 104.319 25.625C103.82 25.1117 103.428 24.481 103.142 23.733C102.856 22.9777 102.713 22.105 102.713 21.115C102.713 20.345 102.837 19.6227 103.087 18.948C103.336 18.266 103.692 17.6757 104.154 17.177C104.623 16.671 105.191 16.2713 105.859 15.978C106.533 15.6847 107.292 15.538 108.136 15.538ZM108.191 17.485C107.399 17.485 106.779 17.7087 106.332 18.156C105.884 18.6033 105.598 19.2377 105.474 20.059H110.578C110.578 19.707 110.53 19.377 110.435 19.069C110.339 18.7537 110.193 18.4787 109.995 18.244C109.797 18.0093 109.547 17.826 109.247 17.694C108.946 17.5547 108.594 17.485 108.191 17.485Z" fill="black"/>
<path d="M16.7162 2.00669C16.7162 3.11495 15.8085 4.01338 14.6887 4.01338C13.5689 4.01338 12.6611 3.11495 12.6611 2.00669C12.6611 0.89843 13.5689 4.62231e-07 14.6887 4.62231e-07C15.8085 4.62231e-07 16.7162 0.89843 16.7162 2.00669Z" fill="#212121"/>
<path d="M27.3742 3.99851C27.3742 4.82781 26.6949 5.50008 25.857 5.50008C25.0191 5.50008 24.3398 4.82781 24.3398 3.99851C24.3398 3.16922 25.0191 2.49695 25.857 2.49695C26.6949 2.49695 27.3742 3.16922 27.3742 3.99851Z" fill="#212121"/>
<path d="M14.6894 2.39783H15.3142L16.9506 7.19148L14.8854 7.60029L14.1719 2.39783H14.6894Z" fill="#212121"/>
<path d="M25.0007 4.65328L23.5918 7.60017L24.7378 8.07923L26.2398 4.39996L25.0007 4.65328Z" fill="#212121"/>
<path fill-rule="evenodd" clip-rule="evenodd" d="M31.6387 15.0855C33.3415 21.8719 28.9335 29.2954 19.4596 31.4397C10.7606 33.4086 2.03761 30.0346 0.288349 23.3274C-1.46095 16.6201 4.97442 8.7377 13.4836 6.49991C21.5653 4.37451 29.6258 7.06376 31.6387 15.0855ZM7.44357 14.3417C7.64569 14.3662 7.82314 14.4515 7.94608 14.5382C8.1377 14.6733 8.26955 14.8697 8.45516 15.1461C8.53957 15.2718 8.63509 15.4141 8.7524 15.5747L8.83763 15.6915C9.87502 17.1138 11.5237 19.3743 14.8283 21.2039C18.4724 23.2216 22.6684 23.5679 24.9771 23.3209C25.6189 23.2522 26.1774 23.1386 26.6386 23.0449C26.9283 22.9859 27.1797 22.9348 27.389 22.9076C27.7735 22.8577 27.9395 22.8657 28.066 23.0991C28.16 23.2723 28.1057 23.4369 27.9695 23.7124C27.4197 24.8247 25.2505 26.9362 20.4115 28.1182C14.6932 29.5149 8.74621 27.7189 6.00973 24.7505C4.52081 23.1354 3.94504 21.7613 3.87662 20.2162C3.83579 19.2945 3.96524 18.3755 4.2929 17.5652C4.52114 17.0007 4.78184 16.5255 5.10803 16.0762C5.4368 15.6234 5.72189 15.3354 6.04387 15.0195C6.33297 14.7357 6.64439 14.5267 6.87494 14.4293C7.03697 14.3607 7.19001 14.3108 7.44357 14.3417ZM20.0855 17.5524C23.0771 20.5133 27.073 21.152 29.0104 19.2344C30.9479 17.3169 30.1232 13.5692 27.1316 10.6083C24.14 7.6475 19.8783 7.1101 18.1768 8.71925C16.4921 10.3124 17.0938 14.5916 20.0855 17.5524Z" fill="#212121"/>
<path d="M26.5282 15.9344C25.7329 16.7308 24.0815 16.4766 22.8389 15.2612C21.5964 14.0458 21.3375 12.2803 22.0292 11.6185C22.7279 10.95 24.4889 11.1617 25.7314 12.3771C26.9739 13.5925 27.3236 15.138 26.5282 15.9344Z" fill="#212121"/>
</svg>
