<svg width="102" height="95" viewBox="0 0 102 95" fill="none" xmlns="http://www.w3.org/2000/svg">
<path fill-rule="evenodd" clip-rule="evenodd" d="M61.353 46C67.948 46 73.2942 40.6538 73.2942 34.0589C73.2942 27.4639 67.948 22.1177 61.353 22.1177C54.7581 22.1177 49.4119 27.4639 49.4119 34.0589C49.4119 35.4488 49.6493 36.7832 50.0859 38.0238C49.3462 39.7826 48.1293 41.2913 46.5972 42.3877C45.206 39.9282 44.4119 37.0863 44.4119 34.0589C44.4119 24.7025 51.9967 17.1177 61.353 17.1177C70.7094 17.1177 78.2942 24.7025 78.2942 34.0589C78.2942 43.4152 70.7094 51 61.353 51C58.1601 51 55.1734 50.1167 52.6241 48.5811C53.9523 47.4844 55.1275 46.2091 56.1129 44.7918C57.6949 45.5657 59.4732 46 61.353 46ZM54.3919 43.7623C53.1026 42.8356 52.0054 41.6584 51.1718 40.3018C50.287 41.7903 49.0954 43.0751 47.6842 44.069C48.6012 45.3191 49.6855 46.4387 50.9042 47.3949C52.2401 46.3659 53.4171 45.1406 54.3919 43.7623Z" fill="black"/>
<path fill-rule="evenodd" clip-rule="evenodd" d="M40.647 17.1177C43.84 17.1177 46.8266 18.001 49.3759 19.5366C48.0477 20.6333 46.8725 21.9086 45.8872 23.3259C44.3052 22.552 42.5268 22.1177 40.647 22.1177C34.0521 22.1177 28.7058 27.4639 28.7058 34.0589C28.7058 40.6538 34.0521 46 40.647 46C47.2419 46 52.5882 40.6538 52.5882 34.0589C52.5882 32.6688 52.3507 31.3343 51.914 30.0936C52.6537 28.3349 53.8707 26.8262 55.4027 25.7298C56.794 28.1894 57.5882 31.0314 57.5882 34.0589C57.5882 43.4152 50.0033 51 40.647 51C31.2906 51 23.7058 43.4152 23.7058 34.0589C23.7058 24.7025 31.2906 17.1177 40.647 17.1177ZM54.3158 24.0485C53.3988 22.7985 52.3145 21.679 51.0958 20.7228C49.7599 21.7518 48.583 22.9771 47.6081 24.3555C48.8974 25.282 49.9945 26.4592 50.8281 27.8157C51.7129 26.3272 52.9045 25.0424 54.3158 24.0485Z" fill="black"/>
<path fill-rule="evenodd" clip-rule="evenodd" d="M98.9972 74.6074C99.0489 76.3948 98.3883 78.1295 97.1608 79.4298C95.9333 80.7302 94.2395 81.4895 92.4521 81.5408H9.54789C7.76048 81.4895 6.06668 80.7302 4.83921 79.4298C3.61174 78.1295 2.95116 76.3948 3.00282 74.6074V9.93341C2.89767 6.21223 5.82682 3.10928 9.54789 3H92.4521C96.1732 3.10928 99.1023 6.21223 98.9972 9.93341V74.6074Z" stroke="black" stroke-width="5" stroke-linecap="round" stroke-linejoin="round"/>
<path d="M22.6384 90.2677H79.3624" stroke="black" stroke-width="5" stroke-linecap="round" stroke-linejoin="round"/>
<path d="M51.0002 81.5409V90.2677" stroke="black" stroke-width="5" stroke-linecap="round" stroke-linejoin="round"/>
<path d="M3.00317 64.0873H98.9975" stroke="black" stroke-width="5" stroke-linecap="round" stroke-linejoin="round"/>
<path d="M51.0003 71.7233C51.6027 71.7233 52.0911 72.2117 52.0911 72.8141C52.0911 73.4166 51.6027 73.905 51.0003 73.905C50.3978 73.905 49.9094 73.4166 49.9094 72.8141C49.9094 72.2117 50.3978 71.7233 51.0003 71.7233" stroke="black" stroke-width="5" stroke-linecap="round" stroke-linejoin="round"/>
</svg>
