<svg width="93" height="93" viewBox="0 0 93 93" fill="none" xmlns="http://www.w3.org/2000/svg">
<path d="M46.5 18.818V70.2271" stroke="black" stroke-width="5" stroke-linecap="round" stroke-linejoin="round"/>
<path fill-rule="evenodd" clip-rule="evenodd" d="M18.1306 4C18.1306 3.44772 18.5783 3 19.1306 3H73.8697C74.422 3 74.8697 3.44772 74.8697 4V17.8182C74.8697 18.3705 74.422 18.8182 73.8697 18.8182H19.1306C18.5783 18.8182 18.1306 18.3705 18.1306 17.8182V4Z" stroke="black" stroke-width="5" stroke-linecap="round" stroke-linejoin="round"/>
<path fill-rule="evenodd" clip-rule="evenodd" d="M37.0435 71.2273C37.0435 70.675 37.4912 70.2273 38.0435 70.2273H54.9565C55.5088 70.2273 55.9565 70.675 55.9565 71.2273V89C55.9565 89.5523 55.5088 90 54.9565 90H38.0435C37.4912 90 37.0435 89.5523 37.0435 89V71.2273Z" stroke="black" stroke-width="5" stroke-linecap="round" stroke-linejoin="round"/>
<path fill-rule="evenodd" clip-rule="evenodd" d="M3 71.2273C3 70.675 3.44772 70.2273 4 70.2273H20.913C21.4653 70.2273 21.913 70.675 21.913 71.2273V89C21.913 89.5523 21.4653 90 20.913 90H4C3.44772 90 3 89.5523 3 89V71.2273Z" stroke="black" stroke-width="5" stroke-linecap="round" stroke-linejoin="round"/>
<path fill-rule="evenodd" clip-rule="evenodd" d="M71.0869 71.2273C71.0869 70.675 71.5346 70.2273 72.0869 70.2273H89C89.5522 70.2273 90 70.675 90 71.2273V89C90 89.5523 89.5522 90 89 90H72.0869C71.5346 90 71.0869 89.5523 71.0869 89V71.2273Z" stroke="black" stroke-width="5" stroke-linecap="round" stroke-linejoin="round"/>
<path d="M78.652 70.2309V50.4582C78.652 48.2742 76.9585 46.5037 74.8694 46.5037H18.1303C16.0412 46.5037 14.3477 48.2742 14.3477 50.4582V70.2309" stroke="black" stroke-width="5" stroke-linecap="round" stroke-linejoin="round"/>
</svg>
