<svg width="92" height="92" viewBox="0 0 92 92" fill="none" xmlns="http://www.w3.org/2000/svg">
<path fill-rule="evenodd" clip-rule="evenodd" d="M55.0001 46C55.0001 50.9706 50.9706 55 46.0001 55C42.4664 55 39.4083 52.9634 37.9356 50H32.5798C34.3009 55.783 39.658 60 46.0001 60C53.7321 60 60.0001 53.732 60.0001 46C60.0001 38.268 53.7321 32 46.0001 32C39.658 32 34.3009 36.217 32.5798 42H37.9356C39.4083 39.0366 42.4664 37 46.0001 37C50.9706 37 55.0001 41.0294 55.0001 46Z" fill="black"/>
<rect x="44" y="71" width="5" height="18" fill="black"/>
<rect x="44" y="3" width="5" height="18" fill="black"/>
<path fill-rule="evenodd" clip-rule="evenodd" d="M44 22.082C44.6595 22.0276 45.3265 21.9999 46 21.9999C59.2548 21.9999 70 32.745 70 45.9999C70 51.599 68.0827 56.7502 64.8687 60.8329L55.0314 50.9956L51.4958 54.5311L64.2278 67.2631L64.2303 67.2606L64.9352 67.9655C71.0987 62.6475 75 54.7793 75 45.9999C75 29.9836 62.0163 16.9999 46 16.9999C45.3277 16.9999 44.6608 17.0228 44 17.0678V22.0582L44.0091 22.074L44 22.0793V22.082ZM17 45.9999C17 36.0072 22.054 27.195 29.7453 21.98L32.2534 26.3242C26.054 30.6636 22 37.8583 22 45.9999C22 59.2547 32.7452 69.9999 46 69.9999C47.016 69.9999 48.0172 69.9367 49 69.8142V74.8466C48.0138 74.9479 47.013 74.9999 46 74.9999C29.9837 74.9999 17 62.0161 17 45.9999ZM58 72.344V72.4084L58.0443 72.3882L58 72.344Z" fill="black"/>
<path fill-rule="evenodd" clip-rule="evenodd" d="M46 2C55.4383 2 64.1824 4.97171 71.3479 10.0305L67.7531 13.6254C61.5389 9.44173 54.0546 7 46 7C24.4609 7 7 24.4609 7 46C7 54.0559 9.44253 61.5413 13.6274 67.7561L10.0326 71.3509C4.97254 64.1849 2 55.4396 2 46C2 21.6995 21.6995 2 46 2ZM20.6365 81.9585C27.8049 87.024 36.5549 90 46 90C70.3005 90 90 70.3005 90 46C90 36.5488 87.0201 27.7936 81.9487 20.6226L78.3544 24.2169C82.5504 30.437 85 37.9324 85 46C85 67.5391 67.5391 85 46 85C37.9385 85 30.4483 82.5541 24.231 78.3639L20.6365 81.9585Z" fill="black"/>
<circle cx="6.5" cy="85.5" r="6.5" fill="black"/>
<rect x="16.7126" y="71.7518" width="5" height="17.0814" transform="rotate(45 16.7126 71.7518)" fill="black"/>
<rect x="86.3513" y="2.1134" width="5" height="20.6384" transform="rotate(45 86.3513 2.1134)" fill="black"/>
<path d="M77 2.5C77 1.11929 78.1193 0 79.5 0H92V5H79.5C78.1193 5 77 3.88071 77 2.5Z" fill="black"/>
<path d="M92 0L92 12.5C92 13.8807 90.8807 15 89.5 15C88.1193 15 87 13.8807 87 12.5L87 -2.18557e-07L92 0Z" fill="black"/>
</svg>
