<svg width="97" height="94" viewBox="0 0 97 94" fill="none" xmlns="http://www.w3.org/2000/svg">
<path d="M10.5342 3.00745H6.76712C4.6866 3.00745 3 4.69404 3 6.77457V10.5417" stroke="black" stroke-width="5" stroke-linecap="round" stroke-linejoin="round"/>
<path d="M70.8081 3.00745H74.5752C76.6558 3.00745 78.3424 4.69404 78.3424 6.77457V10.5417" stroke="black" stroke-width="5" stroke-linecap="round" stroke-linejoin="round"/>
<path d="M21.8354 3H35.0204" stroke="black" stroke-width="5" stroke-linecap="round" stroke-linejoin="round"/>
<path d="M46.322 3H59.5069" stroke="black" stroke-width="5" stroke-linecap="round" stroke-linejoin="round"/>
<path d="M10.5342 78.3498H6.76712C4.6866 78.3498 3 76.6632 3 74.5827V70.8156" stroke="black" stroke-width="5" stroke-linecap="round" stroke-linejoin="round"/>
<path d="M23 78H32" stroke="black" stroke-width="5" stroke-linecap="round" stroke-linejoin="round"/>
<path d="M3 21.8356V35.0205" stroke="black" stroke-width="5" stroke-linecap="round" stroke-linejoin="round"/>
<path d="M3 46.322V59.507" stroke="black" stroke-width="5" stroke-linecap="round" stroke-linejoin="round"/>
<path d="M78.3423 21.8356V35.0205" stroke="black" stroke-width="5" stroke-linecap="round" stroke-linejoin="round"/>
<path d="M78.3423 46.322V50.0891" stroke="black" stroke-width="5" stroke-linecap="round" stroke-linejoin="round"/>
<path d="M50.6031 59.9662H46.836C44.7554 59.9662 43.0688 61.6528 43.0688 63.7333V67.5004" stroke="black" stroke-width="5" stroke-linecap="round" stroke-linejoin="round"/>
<path d="M86.4656 59.9664H90.2327C92.3132 59.9664 93.9998 61.653 93.9998 63.7336V67.5007" stroke="black" stroke-width="5" stroke-linecap="round" stroke-linejoin="round"/>
<path d="M61.9038 59.959H75.0887" stroke="black" stroke-width="5" stroke-linecap="round" stroke-linejoin="round"/>
<path d="M50.6026 90.1033H46.8355C44.755 90.1033 43.0684 88.4167 43.0684 86.3362V82.5691" stroke="black" stroke-width="5" stroke-linecap="round" stroke-linejoin="round"/>
<path d="M86.4655 90.1033H90.2326C92.3132 90.1033 93.9998 88.4167 93.9998 86.3362V82.5691" stroke="black" stroke-width="5" stroke-linecap="round" stroke-linejoin="round"/>
<path d="M61.9038 90.0959H75.0887" stroke="black" stroke-width="5" stroke-linecap="round" stroke-linejoin="round"/>
</svg>
