<svg width="104" height="93" viewBox="0 0 104 93" fill="none" xmlns="http://www.w3.org/2000/svg">
<rect x="4.5" y="18.5" width="84" height="5" fill="black"/>
<path fill-rule="evenodd" clip-rule="evenodd" d="M8.50223 0C8.47776 0 8.4533 0.000359297 8.42884 0.00107741C3.65144 0.141388 -0.111695 4.11516 0.00258372 8.88839V72.1109C-0.0532112 74.3984 0.79655 76.6161 2.36795 78.2809C3.94832 79.9551 6.1291 80.9329 8.43045 80.999C8.45437 80.9997 8.4783 81 8.50223 81H48.0001V76H8.54277C7.57872 75.9641 6.66678 75.5509 6.00394 74.8487C5.33394 74.1389 4.97334 73.192 5.00154 72.2162C5.00224 72.1922 5.00258 72.1681 5.00258 72.144V8.856C5.00258 8.83246 5.00225 8.80892 5.00159 8.78539C4.94447 6.76374 6.52703 5.07644 8.54359 5H84.4564C86.473 5.07644 88.0555 6.76374 87.9984 8.78539C87.9978 8.80892 87.9974 8.83246 87.9974 8.856V39H92.9974V8.8883C93.1116 4.11511 89.3485 0.141387 84.5712 0.00107741C84.5467 0.000359297 84.5222 0 84.4978 0H8.50223Z" fill="black"/>
<path fill-rule="evenodd" clip-rule="evenodd" d="M81.9872 70.9961L99.2539 66.6794C100.135 66.4614 100.773 65.6982 100.832 64.7927C100.891 63.8871 100.357 63.0475 99.5122 62.7169L61.4039 47.7169C60.6314 47.4109 59.751 47.5932 59.1635 48.1807C58.576 48.7682 58.3937 49.6486 58.6997 50.4211L73.6997 88.5253C74.0322 89.3669 74.87 89.8977 75.773 89.8388C76.6761 89.7799 77.4378 89.1447 77.6581 88.2669L81.9872 70.9961Z" stroke="black" stroke-width="5" stroke-linecap="round" stroke-linejoin="round"/>
<circle cx="16" cy="12" r="3.5" fill="black"/>
<circle cx="27" cy="12" r="3.5" fill="black"/>
<circle cx="38" cy="12" r="3.5" fill="black"/>
</svg>
